<?xml version="1.0" standalone="no"?>
<!DOCTYPE svg PUBLIC "-//W3C//DTD SVG 1.1//EN" "http://www.w3.org/Graphics/SVG/1.1/DTD/svg11.dtd" >
<svg xmlns="http://www.w3.org/2000/svg">
<metadata></metadata>
<defs>
<font id="toms_handwritinghandwriting" horiz-adv-x="2048" >
<font-face units-per-em="2048" ascent="1638" descent="-410" />
<missing-glyph horiz-adv-x="1024" />
<glyph horiz-adv-x="0" />
<glyph unicode="&#xd;" horiz-adv-x="1024" />
<glyph unicode=" "  horiz-adv-x="1024" />
<glyph unicode="&#x09;" horiz-adv-x="1024" />
<glyph unicode="&#xa0;" horiz-adv-x="1024" />
<glyph unicode="!" horiz-adv-x="440" d="M70 98l57 88q41 -6 86 -28v-60l-86 -57zM127 592q10 88 20.5 175t45.5 411q45 413 49 450q2 -12 2 -27.5v-31.5q0 -80 -15 -260q-33 -414 -32 -531q0 -129 16 -188q-4 4 -30.5 -15.5t-37.5 -19.5q-18 0 -18 37z" />
<glyph unicode="&#x22;" horiz-adv-x="512" d="M123 1270q53 115 60.5 198t52.5 140q0 -66 2 -124.5t4 -115.5q0 -102 -17 -168q-23 -86 -82 -176zM369 1239q53 115 55 218.5t47 160.5q0 -63 5 -152.5t5 -99.5q0 -84 -18.5 -152.5t-73.5 -148.5z" />
<glyph unicode="#" horiz-adv-x="1075" d="M51 989h182q0 90 -4 136t-6 81q0 29 15 51q35 49 69 101v-369h221q74 78 99.5 127t25.5 103q0 25 -7 107.5t-7 139.5q23 -80 32 -145.5t9 -116.5q0 -23 -2 -70t-2 -71q31 -8 160 -35q96 -20 135 -39q-68 -12 -157 -22.5t-138 -14.5v-221q96 0 150.5 6t144.5 31 q25 -35 37 -74q-18 -4 -64 -4q-18 -2 -35 -2q-23 0 -55.5 2t-42.5 2q-39 0 -55.5 -14t-16.5 -62q0 -25 4.5 -53t6.5 -51v-147q-14 23 -101 210q-37 82 -121 82q-164 0 -176 -112.5t-45 -179.5q-23 115 -43 231q-29 2 -139 25q4 6 11 30.5t134 79.5v184q-39 0 -74.5 -1 t-66.5 -3q-14 0 -23 13q-23 35 -55 65zM344 768q29 -8 57 -14q97 -23 201 -23v221q-51 -25 -82 -33t-61 -8q-25 2 -33 2q-16 0 -30.5 -25.5t-51.5 -119.5z" />
<glyph unicode="$" horiz-adv-x="962" d="M76 1124q0 123 78 207q76 61 153 125q92 76 111 162l74 10l-11 -82l103 -10l-21 102l82 -20q12 -90 154 -160q77 -37 102 -96q-16 14 -119.5 32.5t-109.5 24.5q-12 -43 -16.5 -72.5t-4.5 -56.5q0 -6 11 -108q4 -41 4 -97q0 -344 51 -391t51 -213q-20 -68 -33 -106 q-39 -115 -69 -170q-53 -96 -62 -180v-35l-51 143l-72 10q-10 -35 -27.5 -65.5t-33.5 -57.5q-6 31 -7 43.5t-1 28.5q0 20 6 55q-135 55 -146 62q-74 51 -166 221q8 29 29 57q86 -180 105 -200q29 -31 178 -82v565q-96 49 -193 98q-150 104 -149 256zM162 1110 q0 -104 98 -164q16 -10 129 -63v536q-123 -84 -166 -137q-61 -74 -61 -172zM471 342q0 -102 21 -102q10 0 20 16q25 35 35 73t10 74q0 29 -22 177q-13 80 -13 137v23.5t-4 11.5q-8 0 -27.5 -158t-19.5 -252zM504 825q39 -6 49 -16q23 158 31 260t8 186q0 113 -17.5 159 t-42.5 46q-10 0 -16 -4l-12 -8v-623zM614 256v410v-410z" />
<glyph unicode="%" horiz-adv-x="1177" d="M72 96q49 150 80 195q106 141 215 284q285 379 653 924q0 -16 18.5 -37t18.5 -37q0 -12 -128 -180t-235 -303q-127 -162 -129 -162q-178 -256 -303 -456q-115 -186 -190 -228zM184 1180q0 39 70 114q86 94 178 95q16 0 74.5 -70.5t58.5 -101.5q-10 -18 -22.5 -52.5 t-16.5 -81.5h-303q-12 12 -18 23q-20 33 -21 74zM262 1159h189q-2 8 -9 19q-25 37 -104 94zM602 383q0 74 115 135q76 41 188 72q18 -72 27.5 -115t9.5 -94q0 -109 -43 -143q-51 -43 -70 -66q-127 59 -174 104q-53 51 -53 107zM717 324q27 -10 52 -19.5t60 -17.5v188 q-37 -29 -71 -55q-4 -18 -41 -96z" />
<glyph unicode="&#x26;" horiz-adv-x="1054" d="M127 375q0 111 70 192q80 68 161 138q8 27 -20 108q-68 199 -68 221q0 51 47 125q61 94 140 94q168 0 219 -153q29 -86 29 -309q0 -117 96 -158.5t162 -100.5h-48q-43 0 -61 9q-51 25 -149 49q-25 -47 -52 -111q-35 -86 -35 -133q0 -25 54 -115q39 -68 61 -129 q-39 43 -63 76q-45 57 -80 96q-74 -98 -103 -129q-66 -72 -145 -71q-117 0 -178 149q-18 49 -37 152zM184 360q0 -27 17 -73q45 -127 127 -127q53 0 112.5 66.5t59.5 119.5q0 63 -84 160q-27 31 -86 84q-59 -70 -99 -127q-47 -72 -47 -103zM356 993q0 -174 56 -225 q10 -8 147 -63h88v286q-70 131 -108.5 168t-81.5 37q-45 0 -73 -74.5t-28 -128.5zM444 618q45 -57 62 -81q10 -14 53 -91q12 27 25 56q5 14 34 116h-174z" />
<glyph unicode="'" horiz-adv-x="419" d="M123 997v273q72 152 102 198q49 60 94 117q0 -168 -43 -296t-153 -292z" />
<glyph unicode="(" horiz-adv-x="512" d="M76 813q0 276 74.5 488t236.5 327q-16 -45 -96 -164q-86 -127 -121 -233q-57 -174 -57 -420q0 -236 73 -432q101 -211 201 -422q-172 133 -246 350q-66 195 -65 506z" />
<glyph unicode=")" horiz-adv-x="512" d="M104 127q129 215 140 233q74 135 110 246q45 139 45 279q0 156 -69 315q-96 168 -193 338q145 -96 220 -268t75 -436q0 -221 -78 -383q-141 -291 -151 -324h-99z" />
<glyph unicode="*" horiz-adv-x="686" d="M102 1372q119 0 154 92q10 31 10 92q43 -63 71 -91.5t46 -28.5q10 0 84 41q47 27 96 39q0 -12 -56 -77t-56 -87q0 -18 34 -92q25 -51 37 -103q-45 25 -108 64q-43 27 -60 26q-29 0 -149 -162q14 55 14 103q0 96 -57 149q-18 16 -60 35z" />
<glyph unicode="+" horiz-adv-x="890" d="M123 897q113 0 125 -2t94 -29q18 70 25.5 124t7.5 112q0 27 -2 75t-2 68q0 41 7 77t25 75q8 -35 14.5 -227.5t18.5 -303.5q76 0 174 -12q12 -2 138 -20l32 -95q-102 16 -144 27.5t-75 21.5q-10 0 -37 -6q-102 -23 -121 -26v-516q-37 51 -52 106t-15 111q0 55 10 121 q27 172 27 225q-61 18 -102.5 25.5t-61.5 7.5h-25q-20 23 -61 61z" />
<glyph unicode="," horiz-adv-x="573" d="M55 -272q2 2 131 57q162 70 162 276q-41 -14 -78 -14q-76 0 -120 64q-37 53 -37 108q0 104 34 129q68 49 82 74h117q68 -145 80 -178q35 -97 35 -197q0 -227 -144 -323q-47 -31 -145 -54q-45 16 -60.5 23.5t-56.5 34.5z" />
<glyph unicode="-" horiz-adv-x="1064" d="M68 899q74 20 159.5 29.5t194.5 9.5q172 0 345 -22.5t257 -51.5q-12 -25 -20 -35q-27 -37 -50 -36q-39 12 -77 26q-113 33 -275 51q-240 29 -534 29z" />
<glyph unicode="." horiz-adv-x="409" d="M51 86l47 236h189q20 -76 29.5 -132.5t17.5 -103.5l-141 -94q-39 20 -80 47q-27 18 -62 47z" />
<glyph unicode="/" horiz-adv-x="972" d="M94 88l340 678q80 150 219 358q182 274 236 275q18 0 18 -39l-180 -316q-201 -344 -362 -598q-213 -332 -271 -358z" />
<glyph unicode="0" horiz-adv-x="962" d="M18 801q0 197 109 352q123 176 311 176q37 0 137 -67q125 -84 205 -197q107 -149 107 -317q0 -201 -167 -419t-323 -218q-162 0 -280 276q-98 227 -99 414zM100 801q0 -238 86 -402q109 -207 211 -206q143 0 275.5 179t132.5 390q0 180 -135 346t-271 166 q-100 0 -196 -146q-102 -154 -103 -327z" />
<glyph unicode="1" horiz-adv-x="880" d="M43 1251q66 96 184 213q106 104 199 170l127 -1530q100 0 192 33q33 -33 46 -53q4 -6 18 -43h-637q78 37 147.5 50t169.5 13q0 14 21 41q12 16 12 27l-160 1335q-27 -18 -184 -153q-66 -55 -135 -103z" />
<glyph unicode="2" horiz-adv-x="890" d="M82 1401q68 113 188 158q96 35 260 34q145 0 211 -127q50 -96 50 -241q0 -195 -103 -398q-49 -98 -213 -331q-133 -190 -168 -285q98 -53 203 -72q66 -12 152 -88q-45 4 -47.5 -13.5t-20.5 -17.5q-129 49 -193 74q-193 78 -192 103q0 6 141 194q170 227 264 402 q143 266 144 448q-29 106 -51 160q-72 160 -175 160q-106 0 -235 -49.5t-215 -110.5z" />
<glyph unicode="3" horiz-adv-x="1208" d="M76 1360q125 102 258 147t297 45q152 0 205 -34q63 -43 63 -172q0 -143 -104 -281q-12 -16 -115 -119q236 -78 289 -110q123 -78 123 -238q0 -213 -154 -377t-371 -164q-59 -2 -69 -2t-19 11q-20 27 -53 55q63 -8 81.5 -9t41.5 -1q217 0 347 121.5t130 332.5 q0 145 -70 221q-84 90 -297 91q-27 0 -78 -2.5t-71 -2.5q-55 0 -84 11q209 90 307 178q137 121 137 285q0 80 -72.5 127t-166.5 47q-135 0 -334 -72q-45 -16 -221 -88z" />
<glyph unicode="4" horiz-adv-x="1189" d="M68 676q39 174 131 377q78 170 137 250q-29 -100 -76 -226q-59 -154 -106 -237v-92q53 -18 57 -19q12 4 25 8q344 0 456 66q88 51 88 186q0 27 -4 100.5t-4 90.5q0 70 9.5 125t37.5 122v-626q37 -6 72 -6q57 0 103 11t93 28q2 -8 3 -21q-2 -23 -3 -31q1 -16 9 -24 q-72 -8 -222 -17q-37 -2 -79 -2q0 -156 -15.5 -349t-40.5 -277q0 115 19 364q10 139 10 230q-12 4 -43 7t-63 3q-41 0 -269 -31q-121 -16 -203 -16q-57 0 -122 6z" />
<glyph unicode="5" horiz-adv-x="1064" d="M72 1346q72 12 143 26q68 10 147 10q66 0 255.5 -25.5t254.5 -47.5q-25 -35 -36 -74q-160 76 -359 96q-76 6 -151 15q-45 -164 -66.5 -260.5t-42.5 -213.5l246 -4q219 -10 342 -73q174 -90 174 -285q0 -291 -152 -397q-104 -74 -319 -74h-47q-96 0 -155.5 12t-125.5 58 q51 0 178 -12.5t195 -12.5q180 0 272 72q117 92 117 317q0 176 -139 260q-119 72 -316 72q-154 0 -307 -41q-6 49 -6 94q0 125 39 246q12 41 41 98q0 45 -66 84q-59 29 -116 60z" />
<glyph unicode="6" horiz-adv-x="890" d="M63 678q0 201 113 510q125 342 240 342q53 0 53 -6q-96 -72 -197 -262q-113 -211 -172 -514q51 -23 87 -31t65 -8q33 0 78 12q113 31 213 31q145 0 196 -37q66 -47 66 -178q0 -164 -134 -312.5t-288 -148.5q-133 0 -226.5 170t-93.5 432zM170 465q59 -166 82 -199 q57 -84 182 -84q92 0 180 107.5t88 230.5v34.5t3 33.5q0 49 -37 69.5t-162 20.5q-72 0 -174 -45q-86 -37 -162 -62v-106z" />
<glyph unicode="7" horiz-adv-x="1300" d="M104 1419q88 16 150 23q184 23 362 22q162 0 301.5 -18.5t276.5 -63.5q-70 -104 -209 -301q-117 -166 -215 -329q-147 -248 -375 -678q-39 12 -73 37q18 20 192 299q184 295 332 548q184 317 203 390q-61 16 -406.5 43.5t-538.5 27.5z" />
<glyph unicode="8" horiz-adv-x="1054" d="M74 1063q63 94 112 141q150 141 332 142q20 -2 35 -7q88 -25 199 -100q-106 31 -248 31q-156 0 -248 -43q-113 -53 -113 -166q0 -86 172 -205q164 -113 256 -113q68 0 172 261q59 145 150 200q-39 -119 -97.5 -234.5t-115.5 -228.5q98 -70 197 -137q86 -65 86 -235 q0 -184 -113 -258q-78 -51 -211 -52q-27 0 -62.5 2t-39.5 2q-94 0 -188.5 11.5t-168.5 25.5q35 76 96 170q106 164 297 400l-360 192q-139 104 -139 201zM289 135q156 0 250 -16q31 -4 67 -19q96 31 144 58q143 82 143 209q0 74 -43 129q-51 68 -207 137q-39 -94 -178 -281 q-111 -147 -176 -217z" />
<glyph unicode="9" horiz-adv-x="1208" d="M94 967q0 201 176 333q207 156 389 156q242 0 324 -203q63 -158 64 -575q0 -76 -2.5 -264t-2.5 -301q-16 -10 -26 -11q-49 0 -51 340t-31 432q-176 -127 -248 -153.5t-225 -26.5q-207 0 -283 54q-84 59 -84 219zM168 985q0 -113 108 -172q82 -45 185 -45q225 0 360 145 q113 121 113 254q0 109 -115 170q-92 49 -194 49q-143 0 -300 -146t-157 -255z" />
<glyph unicode=":" horiz-adv-x="686" d="M197 958q0 35 24 68q43 57 66 107h174q4 -27 23.5 -71.5t19.5 -60.5q0 -20 -30 -73.5t-56 -102.5l-160 54q-61 35 -61 79zM330 168v264l219 -45v-219q-39 -6 -54.5 -11t-23.5 -5q-20 0 -63 6t-78 10z" />
<glyph unicode=";" horiz-adv-x="614" d="M123 96l108 111q43 -8 68 -19q147 -64 147 -254q0 -109 -57 -176q-92 -84 -158 -149q-8 33 21 110q55 156 45 168q-57 59 -84 90q-84 94 -90 119zM176 776q0 96 35 125q68 55 74 66h164v-273q-111 -33 -218 -53h-22q-33 39 -33 135z" />
<glyph unicode="&#x3c;" horiz-adv-x="1146" d="M66 973l938 579q-51 -80 -197 -178q-66 -45 -303 -186q-209 -125 -332 -215q61 -127 185 -271.5t247 -283.5q158 -184 256 -348q-16 -4 -39.5 -16.5t-34.5 -18.5q-53 100 -157 231q-2 2 -238 289q-190 231 -325 418z" />
<glyph unicode="=" horiz-adv-x="1075" d="M-113 551q0 6 162 6q238 0 400.5 13.5t318.5 27.5q47 0 88 -8t121 -33q29 -8 29 -18q0 -12 -76 -17.5t-228 -5.5q-264 0 -539.5 12.5t-275.5 22.5zM49 950q66 25 249 51.5t364 26.5q111 0 193.5 -9t156.5 -34q41 -14 41 -27q0 -20 -144.5 -31.5t-345.5 -11.5 q-246 0 -379 9q-68 12 -135 26z" />
<glyph unicode="&#x3e;" horiz-adv-x="1208" d="M231 1407q127 -53 224 -115q43 -27 247 -174q248 -178 447 -311q-8 -14 -213 -213q-221 -215 -397 -375q-225 -205 -273 -223q53 90 195 231q104 104 289 273q229 209 292 272q-68 82 -225 195q-150 102 -299 207q-182 129 -287 233z" />
<glyph unicode="?" horiz-adv-x="757" d="M68 1268q31 47 63 96q125 172 227 172q111 0 191 -119q104 -156 104 -295q0 -166 -104 -270q-135 -111 -268 -221q-6 -18 -7 -31q0 -18 21.5 -57t21.5 -78q0 -37 -10 -74q-16 23 -31 45q-49 82 -49 168q145 113 254 230q119 127 119 301q0 92 -57 215q-74 158 -183 157 q-61 0 -110 -53q-164 -176 -182 -186zM354 135q0 16 2 25.5t4 17.5l107 -26l-27 -80h-80q-6 47 -6 63z" />
<glyph unicode="@" horiz-adv-x="1310" d="M78 698q0 313 169 580.5t396 267.5q178 0 355.5 -208t177.5 -418q0 -61 -80 -191q-70 -111 -170 -188q-92 80 -115 98q-31 27 -39 27q-8 -25 -54 -43.5t-136 -18.5q-86 0 -164 49q-90 57 -90 140q0 100 98 217q106 127 217 127q145 0 184 -179q59 -268 99 -323 q90 68 129 127q59 90 59 219q0 213 -168 367q-150 137 -319 137q-174 0 -324 -199q-160 -211 -160 -493q0 -289 144.5 -458t388.5 -169q119 0 209 49q238 129 293 137q-160 -139 -272.5 -193.5t-262.5 -54.5q-250 0 -426 250q-139 197 -139 344zM422 823q0 -57 47 -91 t111 -34q45 0 81.5 30t77.5 65v219q-37 14 -66.5 22t-43.5 8q-63 0 -135 -77.5t-72 -141.5z" />
<glyph unicode="A" horiz-adv-x="1198" d="M98 51q141 838 232 1178q70 264 141 336q18 -133 217 -500q209 -385 383 -586v-86q-164 164 -254 340q-45 90 -135 90q-109 -23 -207 -41t-205 -18q0 -172 -63 -445q-47 -201 -109 -268zM328 821q90 35 168.5 46.5t201.5 11.5q-45 113 -118 243q-66 115 -138 213 q-37 -186 -74.5 -341.5t-39.5 -172.5z" />
<glyph unicode="B" horiz-adv-x="921" d="M162 342q0 43 3 110.5t3 79.5q0 92 -1 179.5t-1 169.5q0 301 49 401q63 131 268 131q109 0 169.5 -78t60.5 -211q0 -145 -27 -204.5t-154 -186.5q121 -57 244 -115q55 -41 55 -184q0 -260 -313 -307q-162 -25 -321 -49q-20 94 -27.5 151.5t-7.5 112.5zM201 692 q12 -2 35 -2q152 0 264 125q151 166 151 293q0 94 -45 149q-51 61 -153 62q-86 0 -146 -66q-39 -43 -49 -86q-29 -141 -43 -267t-14 -208zM207 596q8 -61 10 -100t2 -97q0 -41 -1 -74.5t-1 -62.5v-24q45 -16 59 -58q6 -16 15 -16q137 0 270 53q209 84 209 256q0 74 -82 128 t-158 54q-49 0 -114 -16q-117 -29 -209 -43z" />
<glyph unicode="C" horiz-adv-x="993" d="M16 565q0 276 191 531q207 276 477 276q113 0 172 -37q48 -45 62 -55q-102 18 -189 18q-342 0 -534 -266q-150 -207 -150 -450q0 -174 164 -301q115 -88 331 -164t222 -80h-187q-190 86 -380 174q-178 119 -179 354z" />
<glyph unicode="D" horiz-adv-x="880" d="M76 121l2 14q6 2 19.5 -2t15.5 -4q-6 12 -10.5 46t-4.5 67q0 47 2 89t4 81q2 0 16.5 164.5t31 458.5t16.5 487h151q295 -137 379 -314q50 -104 50 -356q0 -225 -123 -494q-137 -299 -291 -299q-20 0 -113.5 21.5t-144.5 40.5zM137 129q68 0 110 -5t89 -11q20 0 45 8 q76 29 188 221q146 248 146 510q0 197 -68 330q-78 152 -297 278h-121q-23 -76 -41 -219q-25 -193 -38 -451t-13 -661z" />
<glyph unicode="E" horiz-adv-x="983" d="M193 268q33 109 59.5 258.5t26.5 329.5q37 133 57 201q63 209 92 241h324q-72 -49 -129 -69q-41 -14 -80 -15q-16 0 -29.5 2.5t-24.5 4.5q-27 0 -53 -61.5t-96 -272.5q70 -20 113 -28.5t75 -8.5q39 0 70 10q41 18 66 27l59 -60q-63 -18 -137 -23t-178 -5h-99 q0 -158 -57 -502q133 -47 305 -67.5t313 -20.5q4 -6 28 -29.5t32 -29.5q-25 -16 -47 -31q-82 37 -257 63.5t-405 26.5q-14 29 -28 59z" />
<glyph unicode="F" horiz-adv-x="880" d="M135 1559q104 -31 187.5 -44.5t140.5 -13.5q53 0 104 12.5t64 12.5q23 0 47 -13.5t67 -50.5h-272h-65q-150 0 -196 -27.5t-46 -84.5q0 -385 203.5 -404.5t279.5 -62.5q-66 -8 -110 -9q-14 0 -106.5 4.5t-201.5 4.5q0 -106 1 -221t4 -238q0 -137 -8.5 -190.5t-45.5 -122.5 q0 463 -12 733q-2 45 -23 323q-12 168 -12 392z" />
<glyph unicode="G" horiz-adv-x="1157" d="M84 682q0 193 121 389q154 250 448 389h271l28 -121l-37 37q-57 53 -157 54q-225 0 -443 -267q-203 -248 -202 -450q0 -217 112.5 -393.5t247.5 -176.5q102 0 215 70q139 86 264 258v76q-129 -18 -211 -19q-74 0 -206 19l28 76q88 -27 217 -44.5t262 -17.5 q-76 -199 -243 -328q-155 -118 -295 -118h-2q-227 0 -334 180q-84 143 -84 387z" />
<glyph unicode="H" horiz-adv-x="1013" d="M98 184q33 78 45 148q23 123 23 268q0 190 -5 350t-11 346q0 125 16 207q18 -68 25.5 -177t7.5 -243v-36v-31v-27v-22q0 -37 -1 -72t-1 -66q66 16 123 25.5t94 9.5q20 0 174 -24q78 -12 157 -13q14 49 23.5 122t9.5 184q0 37 -1 73.5t-1 71.5q0 63 7.5 110.5t25.5 81.5 l63 -1255q-41 74 -52 139.5t-11 155.5v37.5t2 40.5q0 131 -66 176q-92 63 -387 63q-84 0 -125 -71q-49 -86 -49 -330v-94q0 -96 -3 -146.5t-15 -99.5q-6 20 -37 57t-31 41z" />
<glyph unicode="I" horiz-adv-x="870" d="M125 1450h649q-37 -47 -64.5 -64.5t-52.5 -17.5q-18 0 -51 18.5t-51 18.5t-48 -17.5t-43 -67.5t-13 -124q0 -63 14 -221t14 -240q0 -59 -4 -109.5t-24 -111.5v-324q43 -12 86 -21t84 -9h49t47 2v-90q-109 27 -280 34t-310 56h209h110l-26 1200q-86 51 -167 59.5 t-128 28.5z" />
<glyph unicode="J" horiz-adv-x="1075" d="M139 182v119q23 -12 72 -57q23 -20 84 -21q176 0 311 176q119 154 119 392q0 322 -98 466q-72 106 -230 140q-129 20 -258 41l471 41q113 -35 189 -38t164 -81q-129 0 -183 12q-53 16 -92 27q-6 -47 -6 -88q0 -86 25 -185q59 -240 59 -333q0 -319 -152 -492 q-137 -156 -360 -156q-66 0 -78 11q-29 25 -37 26z" />
<glyph unicode="K" horiz-adv-x="993" d="M129 319q0 209 8 405t17.5 418t9.5 380q51 -229 64.5 -368.5t37.5 -215.5q100 80 199 143q131 84 248 131q-47 -61 -176 -145q-176 -115 -236 -164q98 -150 229 -272q94 -90 191 -178q88 -99 129 -238q-16 14 -174 174q-139 139 -277 281q-145 147 -168 166 q-18 -66 -27 -134.5t-9 -126.5q0 -53 8 -141t8 -127q0 -41 -3 -66.5t-11 -58.5q-27 23 -47.5 56.5t-20.5 80.5z" />
<glyph unicode="L" horiz-adv-x="839" d="M129 203q39 59 68.5 257.5t29.5 491.5q0 57 111 410q27 55 53 111q-18 -109 -35 -218q-33 -193 -72.5 -423t-54.5 -271v-389q35 6 77 10t93 4q90 0 170 -18.5t148 -61.5q-197 14 -293 25q-295 33 -295 72z" />
<glyph unicode="M" horiz-adv-x="1310" d="M111 266q0 176 18 479q10 178 37 521q10 127 20 256q121 -96 199 -187q70 -80 133 -182l144 -242q86 98 142 260t95 283q106 -117 152 -315q29 -182 59 -365q39 -226 127 -373l-100 -32q-27 109 -58 307q-37 236 -49 293q-35 158 -98 315q-98 -117 -133 -229 q-35 -158 -70 -281q-96 61 -168 176q-211 338 -307 434q-80 -166 -96 -272q-39 -246 -39 -981q-8 31 -8 135z" />
<glyph unicode="N" horiz-adv-x="962" d="M111 270q0 170 17 460t36 548l20 258q145 -55 244 -332q43 -121 137 -538q74 -330 142 -441v152q0 238 8 396.5t43 346t102 324.5l31 -123q-86 -84 -111 -342q-12 -125 -14 -448.5t-29 -417.5q-86 55 -155 325q-61 260 -123 523q-84 305 -205 423q-80 -166 -96 -272 q-39 -246 -39 -981q-8 31 -8 139z" />
<glyph unicode="O" horiz-adv-x="1382" d="M90 739q0 313 268 551q227 201 420 201q195 0 334 -156q154 -172 154 -467q0 -377 -176 -549q-139 -135 -377 -135q-352 0 -508 189q-115 139 -115 366zM156 739q0 -195 168 -342t389 -147q213 0 356 205q131 188 131 413q0 211 -108 355q-80 104 -203 163 q-82 39 -111 39q-193 0 -407.5 -243.5t-214.5 -442.5z" />
<glyph unicode="P" horiz-adv-x="1075" d="M125 1268q0 141 203 248q68 35 202 79q164 0 320 -135t156 -266q0 -231 -205 -371.5t-563 -140.5q0 -145 8 -246q20 -252 20 -364q-4 -10 -21.5 -5t-23.5 5q-14 0 -22 -13q0 418 -16.5 682.5t-37.5 409.5q-10 57 -20 117zM197 1077q0 -123 17 -200.5t62 -77.5q96 0 166 8 q190 23 312 88q168 90 168 252q0 150 -138 252q-117 86 -235 86q-147 0 -241.5 -62.5t-99.5 -115t-8 -123t-3 -107.5z" />
<glyph unicode="Q" horiz-adv-x="1433" d="M78 705q0 266 158 514q176 276 417 276q174 0 363 -180q213 -203 213 -455q0 -119 -78 -301t-78 -227q0 -51 62 -101q20 -16 61 -38v-95q-119 76 -149 95q-80 49 -105 49q-31 -29 -98.5 -53.5t-190.5 -24.5q-246 0 -424 168q-152 143 -151 373zM139 707 q0 -178 164 -315.5t365 -137.5q72 0 140.5 19.5t139.5 41.5v64l-125 123v63h125q10 -25 27.5 -61.5t34.5 -63.5q59 123 106 249t47 171q0 186 -119 326q-104 123 -296 207q-6 20 -60 20q-20 0 -73.5 -4t-55.5 -4q-125 0 -233 -180q-76 -127 -140 -336q-25 -92 -47 -182z" />
<glyph unicode="R" horiz-adv-x="1116" d="M113 1335q129 53 162.5 60.5t164.5 7.5q195 0 332 -70q160 -82 160 -225q0 -133 -94 -217q-74 -66 -430 -277q147 -63 287 -146t304 -214q-12 0 -41 -21q-14 -10 -26 -10q-4 0 -172 101q-250 150 -316 188l-168 102q-14 -51 -25 -107t-11 -108q0 -29 7 -69.5t7 -46.5 q0 -31 -11.5 -59.5t-31.5 -67.5q0 111 -12.5 349t-30.5 449q-25 266 -55 381zM211 1270q35 -178 39 -336t26 -254q205 80 345 160q245 139 245 252q0 102 -182 182q-145 63 -244 63q-53 0 -129 -26q-80 -33 -100 -41z" />
<glyph unicode="S" horiz-adv-x="1249" d="M39 1157q0 137 186 240q158 86 283 86q78 0 108 -37q10 -23 21 -43q-53 4 -111.5 14t-79.5 10q-61 0 -135.5 -43t-228.5 -172q94 -143 373 -229q358 -111 438 -164q211 -137 211 -432q0 -154 -150 -264q-188 -139 -340 -139q-27 12 -51 18q-74 18 -182 18q-33 41 -86 78 q90 0 149 -12q131 -27 150 -27q168 0 303 119q121 106 121 209q0 279 -254 420q-86 47 -471 160q-254 74 -254 190z" />
<glyph unicode="T" horiz-adv-x="1351" d="M80 1534q20 0 297 -23q444 -37 547 -45q280 -24 321 -30q-53 -14 -113.5 -20.5t-109.5 -6.5q-53 0 -83 2t-54 4q-260 0 -326 -254q-25 -94 -36 -506.5t-122 -570.5q-2 10 -21.5 20.5t-19.5 61.5q63 168 111.5 448.5t48.5 638.5q0 121 -45 180.5t-149 59.5q-84 0 -207 -39 q-23 35 -30 53.5t-9 26.5z" />
<glyph unicode="U" horiz-adv-x="1464" d="M84 1192q0 82 16.5 158.5t63.5 173.5q0 -240 49 -523q66 -375 186 -598q155 -286 385 -286h2q199 0 318 178q98 147 141 412q33 201 33 454q0 133 -5 210t-13 134q0 33 10 45.5t28 12.5q8 0 26.5 -4.5t27.5 -4.5q16 0 24 9v-666q-59 -209 -96 -309q-90 -240 -195 -371 q-141 -178 -317 -178q-80 0 -236 141q-182 166 -301 400q-147 291 -147 612z" />
<glyph unicode="V" horiz-adv-x="1167" d="M57 1567q106 -80 203 -312q45 -109 166 -479q109 -332 190 -512q53 100 101 234q12 35 123 399q43 143 121 338q96 240 126 240q11 0 11 -35q-18 -61 -35 -121q-80 -262 -131 -424t-279 -854q-23 27 -104.5 216t-206.5 521q-156 408 -285 789z" />
<glyph unicode="W" horiz-adv-x="1699" d="M63 1403q82 -57 138 -221q12 -33 96 -351q66 -242 141 -403q70 80 115 162q76 133 184 401q100 -102 174 -235q27 -49 109 -236q61 -139 129 -241q2 0 61 159q88 233 140 402q86 279 135 524q2 -2 28 -2q48 0 48 -53l-375 -1180q-80 82 -144 199q-4 8 -110 231 q-76 158 -158 283q-162 -164 -198.5 -343.5t-176.5 -293.5q-98 422 -174 676q-41 137 -102 315q-43 125 -60 207z" />
<glyph unicode="X" horiz-adv-x="1044" d="M129 195q0 178 157.5 352t157.5 278q0 29 -116 215q-84 133 -152 279q125 -104 166 -150q53 -88 150 -208q137 123 227 241q125 164 131 164q33 0 33 -23q0 -35 -151.5 -219t-151.5 -254q0 -51 72.5 -164.5t148.5 -228.5q98 -157 139 -282q-127 96 -266 319 q-70 111 -137 221q-139 -139 -232 -278q-156 -233 -176 -262z" />
<glyph unicode="Y" horiz-adv-x="1095" d="M109 1569q66 -53 141 -152q76 -115 153 -227q92 -137 211 -295q125 96 181 221q137 306 198 367q-33 -119 -178 -445.5t-299 -627.5q-170 -330 -240 -400q61 252 150 418q143 268 143 320q0 66 -88 196q-96 137 -192 277q-125 188 -180 348z" />
<glyph unicode="Z" horiz-adv-x="1228" d="M59 82q51 135 256 424q57 80 379 514q223 299 287 422q-86 0 -213 12q-336 33 -401 33q63 6 134.5 11t145.5 5q127 0 243 -13t222 -48q-348 -455 -463 -606q-66 -86 -241 -328q-166 -227 -215 -295q98 -31 189 -44t171 -13q39 0 83 4t83 8l86 -86h-746z" />
<glyph unicode="[" horiz-adv-x="880" d="M162 117v1388q100 -4 172.5 -10t398.5 -51q-74 -31 -155 -31q-61 0 -136 16.5t-159 45.5q-63 -104 -72 -132q-16 -55 -16 -237l-5 -959h424q-78 -33 -202.5 -50t-190.5 -40z" />
<glyph unicode="\" horiz-adv-x="1157" d="M158 1192q109 -35 198 -148q117 -166 234 -331q207 -291 463 -588l-58 -57z" />
<glyph unicode="]" horiz-adv-x="880" d="M84 164q53 14 98 24.5t76 10.5q6 0 72 -11q27 -4 63 -4q33 0 67 2t85 11q10 106 61 372q43 219 88 442.5t45 268.5q0 106 -196 150q-59 12 -393 47q45 16 83.5 24t59.5 8q82 -25 205 -45t309 -20q-59 -438 -109 -707q-35 -188 -65 -284q-12 -31 -23 -60 q-2 -25 6.5 -106.5t8.5 -106.5q0 -57 -10.5 -84.5t-39.5 -27.5q-88 16 -141 24q-299 55 -350 72z" />
<glyph unicode="^" horiz-adv-x="747" d="M82 963q80 133 227 423q51 100 111 183q139 -303 203 -475q53 -148 65 -234q-72 84 -98 152q-94 240 -205 422q-61 -137 -121 -273q-76 -145 -182 -198z" />
<glyph unicode="_" horiz-adv-x="788" d="M55 96q37 10 129 16.5t203 6.5q127 0 230.5 -6.5t142.5 -16.5q-51 -8 -103 -16q-121 -6 -305 -6q-143 0 -237 6q-31 8 -60 16z" />
<glyph unicode="`" horiz-adv-x="378" d="M143 1505l103 -92q12 -72 41 -233q16 -90 16 -123q0 -53 -57 -125q0 119 -37 252q-49 176 -66 321z" />
<glyph unicode="a" horiz-adv-x="778" d="M23 899q55 98 100 143q57 59 117 60q221 0 323 -191q72 -133 96.5 -411.5t32.5 -302.5v-170l-92 -33l-22 100l-152 -67q-176 57 -227 84q-145 74 -146 254q0 186 82 264q66 61 187 61q47 0 107 -9t128 -19q35 0 35 20q0 92 -84 213q-96 139 -201 139q-29 0 -104 -43 q-119 -68 -180 -92zM121 399q0 -72 105.5 -171t164.5 -99q18 0 64 10q80 18 106 23q0 68 9.5 133t21.5 137q0 94 -62.5 132t-173.5 38q-94 0 -164.5 -60.5t-70.5 -142.5z" />
<glyph unicode="b" horiz-adv-x="935" d="M59 1153q0 63 21 64q35 0 81 -154t46 -352q76 0 231 37q86 20 137 20q133 0 187 -76q33 -47 33 -123v-22q0 -209 -138 -318q-31 -25 -272 -139h-207q0 434 -31 711q-23 205 -55 295q-20 57 -33 57zM231 315q4 -16 13.5 -43.5t21.5 -93.5h119q160 80 217 127 q137 113 137 273q0 66 -73 106q-55 31 -107 31q-147 0 -225 -56q-100 -72 -101 -229q-2 -100 -2 -115z" />
<glyph unicode="c" horiz-adv-x="1136" d="M94 516q0 205 164 348q145 127 389 127q109 0 150 -20q45 -35 90 -60q-61 12 -129 18.5t-117 6.5q-276 0 -393 -156q-76 -100 -76 -243q0 -209 172 -320q154 -98 397 -98q84 0 153 8t153 31v-119h-437q-154 66 -305 131q-211 127 -211 346z" />
<glyph unicode="d" horiz-adv-x="1003" d="M94 438q0 266 156 400q96 82 289 127q157 37 157 69q0 31 -39 187q-47 184 -90 278q25 16 44.5 26.5t35.5 14.5q14 -70 31 -137q70 -309 94 -428q70 -325 150 -735q-72 -35 -228 -90q-182 -66 -225 -66q-170 0 -285 145q-90 115 -90 209zM168 518q0 -14 1 -23.5t3 -17.5 q0 -106 74 -198q84 -104 215 -105q133 0 264 62q43 20 104 61q-45 299 -77 438q-42 176 -83 176h-3q-297 -43 -420 -184q-78 -90 -78 -209z" />
<glyph unicode="e" horiz-adv-x="1095" d="M88 584q0 164 127 364q135 213 260 213q135 0 219 -155l62 -160v-283q-152 20 -303 43q-72 18 -293 64v-246q117 -158 223 -227q98 -63 209 -64q82 0 199 35q39 12 139 45l-19 -80q-92 -33 -133 -47q-74 -25 -164 -25q-231 0 -378.5 147.5t-147.5 375.5zM184 768 q154 -41 241 -60.5t271 -52.5l-30 256q-35 51 -66 88q-74 86 -119 86q-59 0 -164 -135q-68 -92 -133 -182z" />
<glyph unicode="f" horiz-adv-x="1024" d="M-2 739q10 6 10 21q0 37 9.5 41t23.5 4q20 0 59 -14.5t54 -12.5q0 395 98 565q111 193 383 193q141 0 190 -74q39 -57 39 -196q0 -29 -2 -96.5t-2 -104.5q-14 -10 -26 -18q-12 -2 -25 -3q-25 174 -43 267q-35 170 -107 170q-170 0 -292 -138q-137 -154 -138 -407 q0 -195 158 -213t248 -78q12 -8 -5.5 -23.5t-17.5 -23.5t9 -14q-109 0 -228 37q-82 29 -123 41q-2 -20 -21.5 -41t-19.5 -37q0 -66 58.5 -217.5t58.5 -327.5q-25 -10 -49 -19q-86 199 -111 363q-12 135 -22 272q-10 20 -29 31q-66 25 -137 53z" />
<glyph unicode="g" horiz-adv-x="1095" d="M61 610q0 199 195 365q168 143 297 143q14 0 125 -106q147 -143 235 -299q127 -225 127 -457v-7q0 -110 -32 -224q-33 -115 -160 -228.5t-250 -113.5q-86 0 -178 49q-121 63 -184 186q92 -94 169.5 -142t155.5 -48q88 0 177 69.5t184 218.5q43 68 64.5 119t21.5 82 q0 72 -127 72q-57 0 -142 -10q-221 -27 -284 -27q-182 0 -275 65q-119 86 -119 293zM92 604q0 -174 144 -258q102 -59 235 -59q68 0 274 20t218 45q6 12 8 33t2 23q0 47 -23 104q-6 18 -24 49q-104 205 -217 338l-115 115q-22 22 -59 22h-3q-121 0 -276 -141 q-164 -150 -164 -291z" />
<glyph unicode="h" horiz-adv-x="1085" d="M61 1556q0 16 14.5 38t16.5 34q41 -330 61.5 -491.5t82.5 -491.5q47 190 153 279q83 69 190 69h3q164 0 256 -159q73 -129 73 -281l-10 -563q-29 96 -39 384t-55 398q-72 176 -266 176q-104 0 -198.5 -172t-94.5 -403q0 -168 59 -332q-23 -8 -35 -18.5t-26 -22.5 q-2 10 -51 418q-16 139 -86 741q-45 397 -48 397z" />
<glyph unicode="i" horiz-adv-x="378" d="M96 1317l123 41l41 -166q-27 -14 -57.5 -23.5t-65.5 -17.5q-23 74 -41 166zM137 309q0 244 12.5 492t24.5 248q2 -14 3 -36t1 -69q0 -172 13.5 -344t27.5 -354q0 -63 -8 -110.5t-33 -100.5q-8 -16 -14 -17q-14 0 -20.5 81t-6.5 210z" />
<glyph unicode="j" horiz-adv-x="327" d="M-92 -164q143 0 207 101q53 86 53 247q0 111 -25 271q-55 360 -55 393q0 80 35 94q43 -180 88 -373.5t45 -312.5q0 -369 -57 -418q-127 -27 -260 -106zM78 1157q10 109 39 150q29 20 30 24l48 -174h-117z" />
<glyph unicode="k" horiz-adv-x="870" d="M102 84l11 1513l71 -665q147 16 230 49q145 66 293 131q12 -37 38 -76q-143 -41 -286 -80q-70 -29 -209 -147q106 -98 203 -205q66 -72 172 -192q116 -133 196 -213q-18 -25 -24 -38.5t-15 -37.5q-82 72 -299 319q-199 227 -309 367q-31 -109 -31 -240q0 -90 27 -284 q12 -90 12 -123q0 -82 -53 -82q-6 0 -27 4z" />
<glyph unicode="l" horiz-adv-x="276" d="M84 1061q0 182 8 306t29 165q0 -55 12 -423t25.5 -634t29.5 -348q-35 -25 -67 -35q-6 29 -21.5 364t-15.5 605z" />
<glyph unicode="m" horiz-adv-x="1218" d="M113 55v959q51 -88 59 -111q0 -33 35 -145q57 96 115 192q66 98 108 99q76 0 133 -97q41 -68 92 -225q61 84 82 109q68 82 144 147q113 -92 170 -184q84 -138 84 -328q0 -115 -28 -278.5t-67 -266.5l-65 66q37 66 82 220.5t45 242.5q0 127 -103 299q-47 78 -118 166 q-137 -119 -189 -240q-37 -88 -37 -215q0 -25 2 -70t2 -65q0 -68 -14 -127.5t-53 -116.5q-12 72 -12 143q0 53 6 129q14 176 14 222q0 123 -25 204q-31 106 -112 199q-186 -98 -234 -270q-16 -61 -25 -297t-91 -361z" />
<glyph unicode="n" horiz-adv-x="880" d="M162 1053q14 -31 34.5 -83t34.5 -96q63 80 162 189q74 82 123 131q133 -98 203 -207q80 -125 80 -270q0 -119 -33 -369q-43 -330 -109 -430q0 92 21 221q47 297 47 471q0 207 -43 316q-27 66 -131 196q-190 -88 -266 -272q-55 -135 -56 -356q0 -78 5.5 -195t5.5 -119 q0 -70 -9.5 -116t-33.5 -74z" />
<glyph unicode="o" horiz-adv-x="1075" d="M96 410q0 176 108.5 313t246.5 137q127 0 313 -108q233 -138 233 -314q0 -186 -118 -327q-127 -152 -320 -152q-135 0 -274 96q-188 129 -189 355zM150 422q0 -152 151 -285q139 -123 260 -123q106 0 232 113q149 135 149 311q0 135 -213 248q-176 92 -291 92 q-127 0 -207.5 -111.5t-80.5 -244.5z" />
<glyph unicode="p" horiz-adv-x="921" d="M45 811l61 12q16 2 18.5 -28.5t14.5 -28.5q47 0 154.5 38t124.5 38q158 0 289 -119q120 -109 120 -213q0 -176 -179 -310t-449 -134q-8 -84 -9 -160q0 -29 2.5 -73t2.5 -58q0 -45 -11.5 -67.5t-25.5 -22.5h-31q0 160 -21 405q-6 68 -38 418q-23 238 -23 303zM123 635 q0 -166 24.5 -312.5t57.5 -158.5q61 -20 121 -21q160 0 282 131q109 116 109 218q0 96 -92.5 186t-169.5 90q-113 0 -199 -23q-133 -35 -133 -110z" />
<glyph unicode="q" horiz-adv-x="1177" d="M115 639q0 213 207 373q172 133 317 133q41 0 213 -72q197 -82 197 -135q-16 -78 -31 -156q-41 -201 -80 -360q-55 -231 -111 -399v-224q82 -20 153 -25t146 -12v-75q-88 0 -167.5 -9.5t-167.5 -27.5q-10 39 -14.5 79t-4.5 81q0 61 37 323q18 131 18 225 q-84 -8 -160.5 -22t-121.5 -14q-172 0 -312 124q-119 106 -118 193zM229 641q0 -96 107 -154q94 -51 209 -51q193 0 250 82q69 97 69 428v10h76q-109 41 -176.5 57.5t-161.5 16.5q-125 0 -249 -124t-124 -265z" />
<glyph unicode="r" horiz-adv-x="819" d="M68 1018q51 -94 55 -107q4 -35 49 -170q84 84 154.5 199t242.5 115q119 0 147 -30t44 -40q-41 -12 -68 -12q-45 0 -96 33.5t-78 33.5q-31 0 -69 -22q-76 -37 -156 -205q-70 -145 -70 -309q0 -94 19.5 -183.5t68.5 -201.5l-104 -35q0 127 -55 444q-80 459 -84 490z" />
<glyph unicode="s" horiz-adv-x="1034" d="M53 823q0 86 94 160q115 90 299 90q55 0 140 -35q29 -10 76 -37q-41 4 -97.5 8.5t-107.5 4.5q-164 0 -252 -35q-117 -47 -117 -156q0 -111 80 -153q61 -33 194 -33q55 0 115 2t119 4q182 0 268 -53q119 -73 119 -268q0 -125 -102.5 -205t-255.5 -80q-129 0 -185 41 q-41 31 -41 80q0 29 7 47q0 4 6 8q27 -27 57 -78q15 -26 146 -26h10q172 0 243 73q45 47 45 115v14t-2 11q0 180 -106 245q-76 47 -246 47q-39 0 -132 -4t-97 -4q-137 0 -197 37q-80 49 -80 180z" />
<glyph unicode="t" horiz-adv-x="839" d="M39 778q14 16 29 33q0 6 -15 12q94 27 140.5 35t97.5 8h104v641h43q35 0 43 -12t10.5 -32.5t2.5 -49.5q0 -43 -7 -117q-14 -172 -14 -229q0 -53 3 -98t26 -99q14 -20 42.5 -28t69.5 -8q45 0 123 10q-14 -20 -25.5 -45t-17.5 -41q-74 8 -106 8h-25q-43 0 -57 2 q-41 10 -68 14v-643q-43 -29 -86 -41q-6 68 -6 164q0 145 2 273.5t4 246.5q-58 0 -172 -8q-92 -6 -119 -6h-10q-6 4 -12 10z" />
<glyph unicode="u" horiz-adv-x="1126" d="M82 481q0 109 29 244q37 170 96 272q0 -70 -12 -184q-29 -270 -29 -352q0 -197 57 -293q74 -123 252 -123q172 0 240 195q35 96 65.5 373.5t89.5 342.5q45 -330 101 -557q39 -164 76 -249q24 -60 30 -60q0 -27 -14 -36t-41 -9h-70q-27 131 -53 262q-14 18 -72 111 q-104 -262 -131 -307q-92 -147 -241 -148q-139 0 -256 171t-117 347z" />
<glyph unicode="v" horiz-adv-x="819" d="M68 1010q49 -88 163 -475q41 -139 148 -285q115 186 174 356q10 31 63 238q27 104 74 164q0 -49 17 -64q4 -4 18 -4q0 -10 -78 -209q-96 -250 -168 -401q-106 -229 -168 -287q0 176 -61 344q-59 141 -119 283q-63 172 -63 340z" />
<glyph unicode="w" horiz-adv-x="1341" d="M55 1059q119 -86 176 -258q100 -305 181 -457q88 143 118 215q57 133 80 301q92 -59 144 -168q86 -213 174 -426q104 111 147 252q117 383 168 463q-8 -104 -113.5 -448.5t-162.5 -464.5q-100 137 -172 329q-92 248 -144 344q-109 -266 -162 -483q-20 -84 -116 -190 q-14 158 -70 344q-41 137 -119 333q-66 156 -129 314z" />
<glyph unicode="x" horiz-adv-x="931" d="M45 1026q115 -82 182 -160q100 -117 201 -223q115 141 170 227q35 55 166 156q-59 -129 -139 -242q-31 -43 -148 -190q238 -270 285 -326q59 -70 98 -248q-94 88 -162 170q-166 205 -221 261q-139 -98 -201 -197q-43 -70 -86 -137q-16 14 -24 24q-27 35 -27 72 q0 33 121 174t121 162q-80 104 -170 231q-104 145 -166 246z" />
<glyph unicode="y" horiz-adv-x="983" d="M135 -389q82 250 191 381q162 197 161 266q0 92 -115.5 257t-236.5 333q0 47 19 47q27 0 108 -117q262 -373 305 -422q63 96 99.5 195t175.5 197q-31 -92 -170 -347q-156 -285 -289 -487q-168 -254 -248 -303z" />
<glyph unicode="z" horiz-adv-x="993" d="M76 215q86 94 176 162q106 74 213 149q170 123 379 303v78q-27 0 -324 16.5t-330 22.5q72 8 125.5 10t112.5 2q80 0 152.5 -7t154.5 -15q47 0 86 9t101 36v-152q-90 -88 -222 -190q-72 -55 -254 -190q-162 -119 -256 -195q113 -53 345 -102q135 -29 194 -127 q-158 45 -397 106q-193 49 -256 84z" />
<glyph unicode="{" horiz-adv-x="819" d="M109 819q96 57 142 79t54 44q4 68 10 137q23 147 88 246q88 133 244 133q76 0 80 -19.5t18 -31.5q-43 6 -81 6q-182 0 -261 -143q-57 -104 -57 -273q0 -41 2 -68.5t6 -60.5q-41 -10 -57 -14q-45 -14 -90 -35q31 -41 64.5 -68.5t82.5 -54.5v-73q-59 -39 -108 -91 q-66 -70 -66 -114q0 -29 47 -119q59 -115 127 -139q115 -29 176.5 -44.5t61.5 -25.5q-18 -4 -31 -4q-150 0 -282 82q-147 90 -148 213q0 39 53 135q39 72 97 131q-16 18 -93 92q-53 51 -79 80z" />
<glyph unicode="|" horiz-adv-x="276" d="M119 119q6 180 10 334.5t4 314.5v113q0 205 -4 380t-6 316q0 -12 47 -18q8 0 25 -3q0 -154 -8.5 -307t-32.5 -358q0 -27 5 -71t5 -52q0 -188 9.5 -349t21.5 -327q-10 -8 -23 -8q-6 0 -23.5 6t-27.5 2q-2 12 -2 27z" />
<glyph unicode="}" horiz-adv-x="819" d="M111 96q49 -4 125.5 -11t115.5 -7q121 0 174 41q66 49 66 178q0 100 -78 164q-29 23 -162 92q76 61 137.5 94t137.5 88q-84 25 -109.5 30t-56.5 5q-6 0 -41 -2t-68 -2q150 174 226.5 284.5t76.5 186.5q0 131 -163 213q-190 51 -381 104h301q180 -109 226 -164t46 -169 q0 -115 -92 -265q-66 -104 -88 -161q41 0 89 -1t124 -28q-37 -55 -105 -107q-76 -51 -108 -75q51 -68 104 -135q47 -72 47 -152q0 -156 -100 -219q-66 -41 -174 -41h-32.5t-26.5 2q-49 0 -80 -3t-60 -5q-10 0 -26 18q-25 29 -45 47z" />
<glyph unicode="~" horiz-adv-x="1146" d="M80 1225q102 172 187 262t145 90q117 0 183.5 -210t164.5 -210q49 0 154.5 118t123.5 118q19 0 19 -43q0 -37 -113 -144q-125 -119 -201 -119q-123 0 -184 210t-131 210q-63 0 -197 -145q-86 -92 -151 -137z" />
<glyph unicode="&#xa1;" horiz-adv-x="440" d="M121 1548l57 58l86 -58v-59q-27 -14 -42 -19.5t-44 -9.5zM178 1055q0 37 19 37q14 0 38.5 -18.5t28.5 -16.5q-8 -29 -12 -80t-4 -113q0 -121 14 -313q33 -442 33 -477q0 -42 -2 -56q-25 244 -48.5 448t-45.5 408q-10 90 -21 181z" />
<glyph unicode="&#xa2;" horiz-adv-x="890" d="M47 655q0 207 84 381q96 201 264 258v56q-8 68 -11 101.5t-19 80.5q-8 18 14 18q12 0 14 -10q12 -37 21.5 -108.5t9.5 -77.5v-51q47 12 98 12q80 0 130 -17.5t116 -66.5q12 -8 2 -20.5t-22 -4.5q-55 43 -104.5 60.5t-121.5 17.5q-51 0 -98 -12v-307l10 -52v-460l15 -127 q18 -4 34.5 -4h34.5q82 0 140.5 17t109.5 62q12 12 22 0t-2 -24q-51 -45 -118.5 -65.5t-151.5 -20.5l-67 4l6 -182q0 -16 -15 -17q-16 0 -16 17l-6 186q-156 25 -258 113q-115 98 -115 243zM78 655q0 -133 104 -221q93 -79 238 -104l-14 121v458l-11 54v299 q-152 -57 -239 -246q-78 -168 -78 -361z" />
<glyph unicode="&#xa6;" horiz-adv-x="276" d="M117 264q0 186 3 292t13 212h29q8 -63 20.5 -343t12.5 -333q-10 -8 -23 -8q-6 0 -23.5 6t-27.5 2q-4 16 -4 172zM123 1577q0 -12 47 -18q9 -1 25 -3q0 -82 -11 -231q-25 -360 -24 -440q-8 -6 -14.5 -6t-12.5 2q0 205 -4 380t-6 316z" />
<glyph unicode="&#xa7;" horiz-adv-x="503" d="M127 635q0 66 29 108q12 18 75 80q16 12 28.5 0t0.5 -28q-53 -45 -70 -66q-27 -37 -26 -94q0 -57 160 -199q75 -67 75 -139q0 -49 -29.5 -96t-72.5 -47q-53 0 -76 16q-25 27 -41 41q-12 16 0.5 28.5t28.5 0.5q12 -16 27 -33q20 -16 61 -17q29 0 47 34t18 73 q0 72 -159 207q-76 63 -76 131zM137 1085q0 98 39 143.5t127 57.5q23 6 23 -18q0 -14 -17 -15q-135 -25 -135 -168q0 -43 20.5 -102t45.5 -104q14 -25 100 -86q70 -50 70 -107q0 -80 -45.5 -135t-120.5 -86q-29 -10 -29 16q0 12 12 17q66 27 106 75t40 113q0 45 -41 78 q-61 49 -123 98q-25 51 -45 107q-27 76 -27 116z" />
<glyph unicode="&#xa9;" horiz-adv-x="1075" d="M96 410q0 176 108.5 313t246.5 137q127 0 313 -108q233 -138 233 -314q0 -186 -118 -327q-127 -152 -320 -152q-135 0 -274 96q-188 129 -189 355zM150 422q0 -152 151 -285q139 -123 260 -123q106 0 232 113q149 135 149 311q0 135 -213 248q-176 92 -291 92 q-127 0 -207.5 -111.5t-80.5 -244.5zM287 403q0 102 82 175q72 63 194 63q61 0 82 -13.5t39 -25.5q-72 12 -123 12q-109 0 -172 -50t-63 -150q0 -104 86 -160q76 -49 198 -49q72 0 154 20v-59h-219q-76 31 -152 63q-106 63 -106 174z" />
<glyph unicode="&#xad;" horiz-adv-x="1064" d="M68 899q74 20 159.5 29.5t194.5 9.5q172 0 345 -22.5t257 -51.5q-12 -25 -20 -35q-27 -37 -50 -36q-39 12 -77 26q-113 33 -275 51q-240 29 -534 29z" />
<glyph unicode="&#xae;" horiz-adv-x="1075" d="M96 410q0 182 136.5 398t269.5 216q102 0 289 -190q206 -214 206 -396q0 -186 -118 -327q-127 -152 -320 -152q-135 0 -274 96q-188 129 -189 355zM150 422q0 -152 151 -285q139 -123 260 -123q106 0 232 113q149 135 149 311q0 143 -186 330q-174 174 -264 174 q-123 0 -238 -199q-104 -180 -104 -321zM391 635q0 55 80 98q27 14 82 33q68 0 129 -53.5t61 -106.5q0 -92 -81.5 -148.5t-225.5 -56.5q0 -45 6.5 -92t6.5 -57q0 -27 -6.5 -43t-32.5 -55zM449 545q0 -57 11 -86t34 -29q70 16 102 33q102 51 102 143q0 57 -45 87t-92 30 q-55 0 -83.5 -54.5t-28.5 -123.5z" />
<glyph unicode="&#xb6;" horiz-adv-x="901" d="M92 1034q0 158 76 258q84 111 231 111q10 0 41 2t47 2q51 0 66 -14q39 -39 55.5 -115t16.5 -184q0 -72 -7 -162q-14 -214 -14 -230q0 -49 7 -178t7 -174q0 -94 -9 -158.5t-36 -109.5q-25 12 -61 20v635q-233 0 -307 39q-113 59 -113 258zM745 733q0 29 1.5 62.5 t13.5 91.5l-6 516h65l10 -10l2 -680l5 -631q-18 6 -28.5 14t-43.5 47v318q-8 90 -13.5 149.5t-5.5 122.5z" />
<glyph unicode="&#xb7;" />
<glyph unicode="&#xb8;" />
<glyph unicode="&#xb9;" />
<glyph unicode="&#xba;" horiz-adv-x="1433" d="M51 1198q25 10 142 -27q100 -31 145 -55q88 -59 119 -80q49 -33 137 -32q53 72 123 206q86 168 112 213l37 41q-2 -27 -3 -49t-1 -37q0 -61 6 -108v-256q94 20 260 90.5t254 93.5q-39 -113 -247 -272q-143 -109 -183 -148l133 -420l21 -41q-51 18 -101.5 55.5 t-144.5 139.5q-57 63 -67 74q-57 59 -76 59q-23 0 -76 -51q-14 -14 -68 -72q-31 -35 -69 -88q-59 -82 -125 -137l-41 -31q45 90 106 240q49 121 99 242z" />
<glyph unicode="&#xbb;" d="M156 932q0 176 98 340q106 176 264 221q33 10 63.5 12t86.5 2q29 0 83 -2t74 -2q133 0 218 -23.5t163 -99.5q6 -6 -2 -14t-14 -2q-74 76 -153 97.5t-212 21.5q-37 0 -107.5 3t-72.5 3q-39 0 -66.5 -2t-52.5 -10q-152 -45 -251 -210t-99 -335q0 -287 182 -494 q190 -215 471 -215q225 0 357 94q147 106 147 318q0 57 -7 107.5t-23 148.5v303q-23 70 -41 100q-25 43 -72 80q-8 6 -1 14.5t15 2.5q43 -35 72 -84q20 -37 43 -105v-311q16 -84 25.5 -140.5t9.5 -115.5q0 -221 -152 -332q-137 -100 -373 -100q-287 0 -480 217t-193 512z M330 774q-4 6 4 10t12 -2q74 -123 164 -178q102 -63 258 -63q125 0 209 38.5t131 131.5q2 6 10 1.5t6 -10.5q-45 -96 -135 -139t-221 -43q-162 0 -263.5 62.5t-174.5 191.5zM604 1309q0 8 10.5 8t10.5 -8l12 -398q0 -8 -10.5 -8t-10.5 8zM821 1296q-4 6 4.5 10.5t12.5 -1.5 q29 -72 37 -176.5t8 -237.5q0 -8 -10.5 -8t-10.5 8v104q0 131 -9 187.5t-32 113.5z" />
<glyph unicode="&#xbc;" horiz-adv-x="972" d="M94 88l340 678q80 150 219 358q182 274 236 275q18 0 18 -39l-180 -316q-201 -344 -362 -598q-213 -332 -271 -358zM111 1360q20 29 61 67.5t70 57.5l47 -502q33 0 59 10q23 -29 29 -43h-219l-2 11q45 23 102 22q12 12 12 18l-53 433q-12 -8 -57 -48q-27 -23 -43 -32z M496 301q12 61 38.5 121.5t47.5 89.5l8 -6q-8 -33 -24.5 -76t-35.5 -74l2 -28q6 -2 21 -2q113 0 144.5 18t31.5 64q-2 39 -2 63q0 23 3 41t11 39l9 -2q2 -18 2 -71.5v-80.5v-51q14 -2 22 -2q18 0 36.5 5t25.5 7q0 -8 3 -15t15 -15l-111 -11q0 -61 -5 -114.5t-15 -87.5l-8 2 q0 47 5 111.5t5 80.5q-25 4 -39 4q-18 0 -67.5 -6t-81.5 -6q-27 0 -41 2z" />
<glyph unicode="&#xbd;" horiz-adv-x="890" d="M33 6q0 33 82 197q59 119 157 299q49 90 101 182q80 150 219 358q182 274 235 275q19 0 19 -39q-90 -158 -180 -315q-201 -344 -363 -598q-213 -332 -270 -359zM111 1360q20 29 61 67.5t70 57.5l47 -502q33 0 59 10q23 -29 29 -43h-219l-2 11q45 23 102 22q12 12 12 18 l-53 433q-12 -8 -57 -48q-27 -23 -43 -32zM518 438q23 39 59.5 52.5t94.5 13.5q49 0 73 -43q19 -33 19 -84q0 -84 -68 -187q-88 -131 -92 -145q25 -12 55.5 -19.5t71.5 -41.5q-25 2 -32 -3.5t-9 -5.5q-43 18 -63 27q-66 29 -66 37q72 86 126 181t54 163q-8 33 -14 49 q-23 49 -55 49q-37 0 -78 -14t-70 -35z" />
<glyph unicode="&#xbe;" horiz-adv-x="972" d="M94 88l340 678q80 150 219 358q182 274 236 275q18 0 18 -39l-180 -316q-201 -344 -362 -598q-213 -332 -271 -358zM139 1386q80 63 187 64q55 0 75.5 -13.5t20.5 -60.5q0 -41 -27 -82q-14 -23 -43 -47q80 -27 94 -37q39 -27 39 -80q0 -72 -54 -128t-126 -56h-29 q-10 14 -32 35q37 -4 51 -4q74 0 116 38t42 105q0 68 -50 88q-27 10 -100 11q-43 0 -57 6q78 35 108 59q47 39 47 92q0 27 -22.5 39t-52.5 12q-35 0 -79 -13t-102 -36zM496 301q12 61 38.5 121.5t47.5 89.5l8 -6q-8 -33 -24.5 -76t-35.5 -74l2 -28q6 -2 21 -2 q113 0 144.5 18t31.5 64q-2 39 -2 63q0 23 3 41t11 39l9 -2q2 -18 2 -71.5v-80.5v-51q14 -2 22 -2q18 0 36.5 5t25.5 7q0 -8 3 -15t15 -15l-111 -11q0 -61 -5 -114.5t-15 -87.5l-8 2q0 47 5 111.5t5 80.5q-25 4 -39 4q-18 0 -67.5 -6t-81.5 -6q-27 0 -41 2z" />
<glyph unicode="&#xbf;" horiz-adv-x="757" d="M94 483q0 166 105 271q133 111 268 221q6 18 6 31q0 18 -21.5 57t-21.5 78q0 37 10 73q14 -23 31 -45q49 -82 49 -168q-145 -113 -254 -229q-119 -127 -119 -301q0 -92 58 -215q74 -158 182 -158q61 0 111 54q164 176 182 186q-33 -49 -64 -96q-125 -172 -227 -172 q-111 0 -190 118q-104 156 -105 295zM281 1454l26 80h80q6 -47 6 -64q0 -16 -2 -25.5t-4 -17.5z" />
<glyph unicode="&#xd7;" horiz-adv-x="1433" d="M51 1198q25 10 142 -27q100 -31 145 -55q88 -59 119 -80q49 -33 137 -32q53 72 123 206q86 168 112 213l37 41q-2 -27 -3 -49t-1 -37q0 -61 6 -108v-256q94 20 260 90.5t254 93.5q-39 -113 -247 -272q-143 -109 -183 -148l133 -420l21 -41q-51 18 -101.5 55.5 t-144.5 139.5q-57 63 -67 74q-57 59 -76 59q-23 0 -76 -51q-14 -14 -68 -72q-31 -35 -69 -88q-59 -82 -125 -137l-41 -31q45 90 106 240q49 121 99 242z" />
<glyph unicode="&#xe6;" horiz-adv-x="1505" d="M8 934q57 53 135 102q92 57 136 58q201 0 288 -125q78 -109 78 -314q53 154 154.5 268.5t197.5 114.5q145 0 209 -96q35 -55 72 -219q6 -27 8 -72t2 -53q0 -68 -3 -103.5t-7 -54.5q-152 20 -303 43q-72 18 -293 64v-246q113 -156 219 -221q92 -57 199 -57q68 0 155.5 19 t178.5 40v-72q-92 -33 -134 -47q-74 -25 -163 -24q-305 0 -445 223v-135l-92 -33l-22 100q-45 -16 -70 -22q-78 -23 -119 -23q-121 0 -244 115q-92 86 -92 201q0 207 86 297q68 72 189 71q53 0 121.5 -16.5t142.5 -34.5q0 92 -84 213q-96 139 -201 139q-29 0 -104 -43 q-119 -68 -180 -92q8 12 -7.5 18.5t-7.5 16.5zM121 399q0 -72 105.5 -171t164.5 -99q14 0 51 12q111 37 148 43q0 55 2 94t4 76q0 33 -6 80q-14 104 -62 160q-53 61 -147 61q-92 0 -176 -86t-84 -170zM707 645q154 -41 241 -60.5t271 -52.5v21.5t2 36.5q0 78 -7.5 121 t-25.5 77q-39 76 -82 121q-51 53 -102 54q-59 0 -164 -136q-68 -92 -133 -182z" />
<glyph unicode="&#xf7;" horiz-adv-x="921" d="M84 942q39 4 106.5 6t90.5 2h59q88 0 103.5 32t15.5 200q59 -39 205 -162q102 -88 206 -176l-313 -387q-59 51 -68.5 135t-97.5 84q-49 0 -73.5 -3t-92.5 -14l-135 -6z" />
<glyph unicode="&#xf8;" horiz-adv-x="921" d="M86 823q127 109 205 174q150 125 207 164q0 -174 15 -203.5t116 -29.5h71h75t97 -6l-6 -289l-135 6q-43 6 -90 11t-76 5q-88 0 -98 -84t-68 -135z" />
<glyph unicode="&#xf9;" horiz-adv-x="604" d="M72 795l47 233h278l142 -94v-234q-98 -29 -179 -43q-199 -39 -241 -49q-23 23 -35 65t-12 122z" />
<glyph unicode="&#xfa;" horiz-adv-x="225" d="M33 860q37 27 78 41l77 -80l-77 -78q-35 41 -45.5 56.5t-32.5 60.5z" />
<glyph unicode="&#xfb;" horiz-adv-x="204" d="M63 53q0 166 6.5 450.5t24.5 619.5t53 405q6 2 13 4q8 -16 8 -96q0 -158 -25.5 -508t-50.5 -606q-14 -135 -29 -269z" />
<glyph unicode="&#xfc;" horiz-adv-x="143" d="M31 143q0 -63 16 -88.5t41 -25.5q12 0 20.5 4t14.5 8q0 438 -29 627q-18 127 -63 192v-717z" />
<glyph unicode="&#xfe;" horiz-adv-x="1433" d="M297 420v819l758 -10l92 -789z" />
<glyph unicode="&#x2c6;" horiz-adv-x="747" d="M143 1229q59 96 105 139q135 127 172 178q104 -127 133 -168q70 -104 113 -241q-109 127 -195 221q-31 33 -72 76z" />
<glyph unicode="&#x2dc;" horiz-adv-x="1146" d="M80 1225q102 172 187 262t145 90q117 0 183.5 -210t164.5 -210q49 0 154.5 118t123.5 118q19 0 19 -43q0 -37 -113 -144q-125 -119 -201 -119q-123 0 -184 210t-131 210q-63 0 -197 -145q-86 -92 -151 -137z" />
<glyph unicode="&#x2000;" horiz-adv-x="819" />
<glyph unicode="&#x2001;" horiz-adv-x="1638" />
<glyph unicode="&#x2002;" horiz-adv-x="819" />
<glyph unicode="&#x2003;" horiz-adv-x="1638" />
<glyph unicode="&#x2004;" horiz-adv-x="546" />
<glyph unicode="&#x2005;" horiz-adv-x="409" />
<glyph unicode="&#x2006;" horiz-adv-x="273" />
<glyph unicode="&#x2007;" horiz-adv-x="273" />
<glyph unicode="&#x2008;" horiz-adv-x="204" />
<glyph unicode="&#x2009;" horiz-adv-x="327" />
<glyph unicode="&#x200a;" horiz-adv-x="91" />
<glyph unicode="&#x2010;" horiz-adv-x="1064" d="M68 899q74 20 159.5 29.5t194.5 9.5q172 0 345 -22.5t257 -51.5q-12 -25 -20 -35q-27 -37 -50 -36q-39 12 -77 26q-113 33 -275 51q-240 29 -534 29z" />
<glyph unicode="&#x2011;" horiz-adv-x="1064" d="M68 899q74 20 159.5 29.5t194.5 9.5q172 0 345 -22.5t257 -51.5q-12 -25 -20 -35q-27 -37 -50 -36q-39 12 -77 26q-113 33 -275 51q-240 29 -534 29z" />
<glyph unicode="&#x2012;" horiz-adv-x="1064" d="M68 899q74 20 159.5 29.5t194.5 9.5q172 0 345 -22.5t257 -51.5q-12 -25 -20 -35q-27 -37 -50 -36q-39 12 -77 26q-113 33 -275 51q-240 29 -534 29z" />
<glyph unicode="&#x2013;" horiz-adv-x="1064" d="M68 899q74 20 159.5 29.5t194.5 9.5q172 0 345 -22.5t257 -51.5q-12 -25 -20 -35q-27 -37 -50 -36q-39 12 -77 26q-113 33 -275 51q-240 29 -534 29z" />
<glyph unicode="&#x2014;" horiz-adv-x="1884" d="M119 899q76 23 247 33t386 10q362 0 703 -20.5t419 -47.5q-25 -18 -37 -26q-43 -29 -65 -29q-139 10 -277 21q-264 18 -688 38.5t-688 20.5z" />
<glyph unicode="&#x2018;" horiz-adv-x="419" d="M90 1554q45 -57 92 -114q35 -51 105 -201v-272q-104 156 -150.5 290t-46.5 297z" />
<glyph unicode="&#x2019;" horiz-adv-x="419" d="M121 954q0 168 43 296t153 292v-272q-72 -152 -102 -199q-49 -59 -94 -117z" />
<glyph unicode="&#x201a;" />
<glyph unicode="&#x201c;" horiz-adv-x="593" d="M18 1405q0 109 29 164q23 43 59 43q46 0 109 -66q20 -20 21 -67q0 -66 -33 -137.5t-62 -71.5q-10 0 -18 10q-4 -23 25.5 -118t56.5 -158l-10 -113q-109 162 -138 235q-37 94 -37 244q-2 18 -2 35zM315 1384q0 109 29 164q23 43 59 43q46 1 109 -65q20 -20 20 -68 q0 -66 -32.5 -137.5t-61.5 -71.5q-10 0 -18 11q-4 -23 25.5 -118t56.5 -159l-10 -113q-109 162 -138 236q-37 94 -37 244q-2 18 -2 34z" />
<glyph unicode="&#x201d;" horiz-adv-x="593" d="M66 954q0 66 32.5 137.5t61.5 71.5q10 0 18 -10q4 23 -25.5 118t-56.5 159l10 112q98 -147 129.5 -231t45.5 -240q2 -12 2 -43q0 -109 -26 -158t-62 -49q-45 0 -109 66q-20 20 -20 67zM362 934q0 66 33 137.5t62 71.5q10 0 18 -10q4 23 -25.5 118t-56.5 158l10 113 q98 -147 129.5 -231t45.5 -240q2 -12 2 -43q0 -109 -26 -158t-62 -49q-45 0 -109 65q-20 20 -21 68z" />
<glyph unicode="&#x201e;" />
<glyph unicode="&#x2022;" horiz-adv-x="604" d="M72 795l47 233h278l142 -94v-234q-98 -29 -179 -43q-199 -39 -241 -49q-23 23 -35 65t-12 122z" />
<glyph unicode="&#x2026;" horiz-adv-x="1208" d="M51 86l47 236h189q20 -76 29.5 -132.5t17.5 -103.5l-141 -94q-39 20 -80 47q-27 18 -62 47zM473 -2l4 235q39 29 72 48q45 27 90 47l121 -95q-25 -61 -44.5 -112t-53.5 -123h-189zM870 287l181 73q37 -66 43 -78t63 -137l-113 -127q-45 10 -79.5 22.5t-79.5 31.5z" />
<glyph unicode="&#x202f;" horiz-adv-x="327" />
<glyph unicode="&#x2039;" />
<glyph unicode="&#x203a;" />
<glyph unicode="&#x205f;" horiz-adv-x="409" />
<glyph unicode="&#x2122;" horiz-adv-x="798" d="M57 1579l291 -25q-29 -6 -53 -6q-33 2 -37 2q-84 0 -89 -148.5t-32 -184.5q0 4 -5 6t-5 14q16 43 28.5 115.5t12.5 156.5q0 59 -49 60q-25 0 -51 -8q-4 4 -6.5 10t-4.5 8zM426 1260q0 53 10 190q2 45 10 127q41 -33 66 -68q12 -16 53 -84q18 20 31.5 58.5t28.5 79.5 q33 -37 46 -131.5t38 -135.5q-14 0 -25 -8q-8 31 -16 86q-14 92 -35 144q-25 -27 -34 -62t-17 -63q-29 16 -54 59q-35 59 -65 90q-20 -45 -25 -65q-10 -61 -10 -248q-2 6 -2 31z" />
<glyph unicode="&#x25fc;" horiz-adv-x="1024" d="M0 0v1024h1024v-1024h-1024z" />
</font>
</defs>
</svg>
